<svg xmlns="http://www.w3.org/2000/svg" width="160" height="160"><g fill="none"><path d="M80 160a79.626 79.626 0 01-44.728-13.663 80.233 80.233 0 01-28.984-35.2 79.9 79.9 0 017.376-75.869A80.232 80.232 0 0148.86 6.287a79.9 79.9 0 0175.869 7.376 80.232 80.232 0 0128.985 35.2 79.895 79.895 0 01-7.376 75.868 80.234 80.234 0 01-35.2 28.984A79.5 79.5 0 0180 160zM80 2.712a76.926 76.926 0 00-43.212 13.2 77.515 77.515 0 00-28 34 77.187 77.187 0 007.126 73.3 77.514 77.514 0 0034 28 77.187 77.187 0 0073.3-7.126 77.514 77.514 0 0028-34 77.186 77.186 0 00-7.126-73.3 77.516 77.516 0 00-34-28A76.8 76.8 0 0080 2.712z"/><path d="M80 159c10.665 0 21.01-2.089 30.75-6.208a79.001 79.001 0 0013.419-7.283 79.567 79.567 0 0011.692-9.647 79.569 79.569 0 009.648-11.693 79.006 79.006 0 007.283-13.419C156.912 101.012 159 90.666 159 80c0-10.665-2.089-21.011-6.208-30.75a79.003 79.003 0 00-7.283-13.419 79.573 79.573 0 00-9.648-11.692 79.57 79.57 0 00-11.692-9.648 79 79 0 00-13.42-7.283C101.012 3.088 90.666 1 80 1S58.99 3.089 49.25 7.208a79 79 0 00-13.418 7.283 79.573 79.573 0 00-11.693 9.648 79.569 79.569 0 00-9.647 11.692 79.002 79.002 0 00-7.283 13.42C3.088 58.988 1 69.334 1 80c0 10.665 2.089 21.01 6.208 30.75a79.003 79.003 0 007.283 13.418 79.57 79.57 0 009.647 11.693 79.568 79.568 0 0011.693 9.647 79.003 79.003 0 0013.419 7.283C58.988 156.912 69.334 159 80 159M80 1.712c10.568 0 20.82 2.07 30.473 6.152a78.298 78.298 0 0113.299 7.219 78.848 78.848 0 0111.586 9.56 78.85 78.85 0 019.56 11.585 78.302 78.302 0 017.218 13.299c4.082 9.652 6.152 19.905 6.152 30.474 0 10.568-2.07 20.82-6.152 30.473a78.303 78.303 0 01-7.219 13.299 78.847 78.847 0 01-9.56 11.586 78.844 78.844 0 01-11.585 9.558 78.298 78.298 0 01-13.299 7.219c-9.652 4.082-19.905 6.152-30.474 6.152-10.568 0-20.82-2.07-30.473-6.152a78.294 78.294 0 01-13.299-7.219 78.843 78.843 0 01-11.586-9.558 78.847 78.847 0 01-9.559-11.586 78.297 78.297 0 01-7.218-13.299c-4.082-9.652-6.152-19.905-6.152-30.473 0-10.569 2.07-20.822 6.152-30.474a78.298 78.298 0 017.218-13.299 78.849 78.849 0 019.56-11.586 78.849 78.849 0 0111.585-9.56 78.296 78.296 0 0113.299-7.218c9.652-4.082 19.905-6.152 30.473-6.152M80 160c-10.8 0-21.276-2.115-31.139-6.287a80.006 80.006 0 01-13.589-7.376 80.572 80.572 0 01-11.84-9.768 80.572 80.572 0 01-9.768-11.84 80.005 80.005 0 01-7.376-13.589C2.115 101.277 0 90.8 0 80s2.115-21.277 6.287-31.14a80.003 80.003 0 017.376-13.589 80.572 80.572 0 019.768-11.84 80.576 80.576 0 0111.84-9.768A80.003 80.003 0 0148.86 6.287C58.723 2.115 69.2 0 80 0s21.277 2.115 31.14 6.287a80.002 80.002 0 0113.589 7.376 80.573 80.573 0 0111.84 9.768 80.576 80.576 0 019.768 11.84 80.004 80.004 0 017.376 13.59C157.885 58.723 160 69.2 160 80s-2.115 21.276-6.287 31.139a80.009 80.009 0 01-7.376 13.589 80.573 80.573 0 01-9.768 11.84 80.57 80.57 0 01-11.84 9.768 80.002 80.002 0 01-13.59 7.376C101.277 157.885 90.8 160 80 160zM80 2.712c-10.433 0-20.555 2.043-30.084 6.073a77.295 77.295 0 00-13.128 7.126 77.847 77.847 0 00-11.438 9.438 77.847 77.847 0 00-9.438 11.439 77.297 77.297 0 00-7.126 13.128c-4.03 9.529-6.073 19.65-6.073 30.085 0 10.433 2.043 20.555 6.073 30.084a77.294 77.294 0 007.126 13.128 77.844 77.844 0 009.438 11.438 77.843 77.843 0 0011.438 9.438 77.293 77.293 0 0013.128 7.126c9.529 4.03 19.65 6.073 30.084 6.073 10.434 0 20.556-2.043 30.085-6.073a77.296 77.296 0 0013.128-7.126 77.842 77.842 0 0011.439-9.438 77.846 77.846 0 009.438-11.438 77.3 77.3 0 007.126-13.128c4.03-9.529 6.073-19.65 6.073-30.084 0-10.434-2.043-20.556-6.073-30.085a77.3 77.3 0 00-7.126-13.128 77.851 77.851 0 00-9.438-11.439 77.845 77.845 0 00-11.439-9.438 77.296 77.296 0 00-13.128-7.126c-9.53-4.03-19.65-6.073-30.085-6.073z" fill="#7b9f35"/></g><path d="M113.438 80.71l-47.186 27.721V52.988z" fill="#7b9f35"/></svg>